<svg xmlns="http://www.w3.org/2000/svg" width="37.797" height="30.495" viewBox="0 0 37.797 30.495">
  <g id="Grupo_50" data-name="Grupo 50" transform="translate(-559.44 -675.898)">
    <g id="Grupo_49" data-name="Grupo 49" transform="translate(559.441 675.898)">
      <path id="Trazado_50" data-name="Trazado 50" d="M580.167,684.436a8.557,8.557,0,0,1,10.617-8.288,8.481,8.481,0,0,1,6.363,7.023,8.32,8.32,0,0,1-3.289,8.053.64.64,0,0,0-.272.57q.011,5.431,0,10.861a3.63,3.63,0,0,1-2.724,3.6,4.279,4.279,0,0,1-1.053.127q-13.3.01-26.6,0a3.652,3.652,0,0,1-3.772-3.777q-.006-8.67,0-17.339c0-.648.19-.837.839-.837h19.886Zm.1,1.248h-19.57v14.591h31.66v-8.111a8.558,8.558,0,0,1-12.09-6.48Zm-19.6,15.847c0,.323,0,.625,0,.927a2.464,2.464,0,0,0,2.713,2.715h26.288c.127,0,.254,0,.381,0a2.369,2.369,0,0,0,2.245-1.887,13.961,13.961,0,0,0,.11-1.75Zm28.065-24.412a7.318,7.318,0,1,0,7.3,7.331A7.32,7.32,0,0,0,588.726,677.119Z" transform="translate(-559.441 -675.898)"/>
      <path id="Trazado_51" data-name="Trazado 51" d="M572.036,691.411h8.308c.649,0,.839.19.839.838q0,5.261,0,10.521c0,.647-.191.839-.839.839H563.727c-.647,0-.837-.19-.838-.839V692.25c0-.65.189-.838.839-.838Zm-7.91,10.952h15.807v-9.712H564.126Z" transform="translate(-560.449 -680.433)"/>
      <rect id="Rectángulo_19" data-name="Rectángulo 19" width="9.708" height="1.175" rx="0.587" transform="translate(21.972 21.975)"/>
      <rect id="Rectángulo_20" data-name="Rectángulo 20" width="4.22" height="1.179" rx="0.59" transform="translate(21.982 19.54)"/>
      <rect id="Rectángulo_21" data-name="Rectángulo 21" width="4.22" height="1.179" rx="0.59" transform="translate(27.47 19.54)"/>
      <path id="Trazado_52" data-name="Trazado 52" d="M599.582,685.443c.609,0,1.219,0,1.828,0a1.824,1.824,0,0,1,1.9,1.9q.009,1.124,0,2.249c0,.5-.222.73-.715.731q-3.544.005-7.089,0c-.5,0-.727-.221-.73-.716,0-.788-.012-1.576,0-2.363a1.816,1.816,0,0,1,1.8-1.8c.635-.012,1.27,0,1.993,0-.11-.053-.146-.075-.185-.088A2.429,2.429,0,0,1,596.6,682.9a9.145,9.145,0,0,1,.071-1.631,2.4,2.4,0,0,1,2.6-1.913,2.447,2.447,0,0,1,2.2,2.342c.011.342,0,.686,0,1.029A2.567,2.567,0,0,1,599.582,685.443Zm2.506,3.644c0-.181,0-.32,0-.459,0-.444.009-.888,0-1.332a.588.588,0,0,0-.619-.628q-2.434-.014-4.869,0a.536.536,0,0,0-.583.5c-.036.638-.011,1.281-.011,1.924Zm-1.833-6.679h0c0-.229.011-.458,0-.686a1.223,1.223,0,0,0-1.231-1.157,1.209,1.209,0,0,0-1.2,1.148c-.021.456-.021.915,0,1.371a1.216,1.216,0,0,0,2.426.01C600.269,682.865,600.255,682.636,600.255,682.407Z" transform="translate(-569.768 -676.904)"/>
      <path id="Trazado_53" data-name="Trazado 53" d="M567.521,699.766a1.743,1.743,0,0,0,.146.319.6.6,0,0,0,1.1-.395.581.581,0,0,0-.507-.541c-.173-.035-.356-.028-.526-.072a1.738,1.738,0,0,1-1.359-1.432,1.621,1.621,0,0,1,.7-1.768.822.822,0,0,0,.466-.983h1.2a.293.293,0,0,1,.028.108.736.736,0,0,0,.435.836,1.657,1.657,0,0,1,.785,1.453h-1.181a2.432,2.432,0,0,0-.11-.258.6.6,0,0,0-1.139.294.58.58,0,0,0,.508.58c.185.039.381.031.563.081a1.735,1.735,0,0,1,1.324,1.421,1.623,1.623,0,0,1-.7,1.768.821.821,0,0,0-.466.985H567.6c-.015-.026-.039-.048-.037-.067a.8.8,0,0,0-.468-.9,1.6,1.6,0,0,1-.754-1.429Z" transform="translate(-561.455 -681.451)"/>
      <path id="Trazado_54" data-name="Trazado 54" d="M573.229,699.758h1.187c.033.084.059.168.1.245a.6.6,0,0,0,1.145-.3.584.584,0,0,0-.529-.561c-.174-.031-.356-.028-.526-.074a1.737,1.737,0,0,1-1.349-1.485,1.641,1.641,0,0,1,.788-1.768.694.694,0,0,0,.408-.774.7.7,0,0,1,.019-.158h1.143c.016.022.045.043.043.06a.837.837,0,0,0,.49.927,1.611,1.611,0,0,1,.736,1.412H575.7a.436.436,0,0,1-.035-.06c-.159-.4-.41-.581-.727-.515a.62.62,0,0,0-.489.638c.025.348.262.536.723.573a1.817,1.817,0,0,1,1.656,1.4,1.736,1.736,0,0,1-.785,1.942.615.615,0,0,0-.379.712.952.952,0,0,1-.013.2H574.5c-.016-.02-.045-.041-.043-.058a.839.839,0,0,0-.489-.928A1.638,1.638,0,0,1,573.229,699.758Z" transform="translate(-563.471 -681.448)"/>
      <path id="Trazado_55" data-name="Trazado 55" d="M583.778,697.291H582.6a2.332,2.332,0,0,0-.111-.259.6.6,0,0,0-1.139.3.582.582,0,0,0,.51.579c.185.038.381.03.563.081a1.735,1.735,0,0,1,1.323,1.422,1.622,1.622,0,0,1-.7,1.768.821.821,0,0,0-.466.984h-1.192c-.015-.027-.039-.05-.036-.068a.8.8,0,0,0-.47-.9,1.617,1.617,0,0,1-.755-1.43h1.18a2.465,2.465,0,0,0,.11.256.6.6,0,0,0,1.138-.294.582.582,0,0,0-.51-.578c-.173-.035-.356-.029-.526-.073a1.736,1.736,0,0,1-1.35-1.4,1.632,1.632,0,0,1,.661-1.782c.379-.263.632-.5.493-1h1.207a.306.306,0,0,1,.028.109.735.735,0,0,0,.436.836A1.656,1.656,0,0,1,583.778,697.291Z" transform="translate(-565.486 -681.451)"/>
    </g>
  </g>
</svg>
