<svg xmlns="http://www.w3.org/2000/svg" width="45.774" height="33.604" viewBox="0 0 45.774 33.604">
  <g id="Grupo_48" data-name="Grupo 48" transform="translate(-1356.367 -37.376)">
    <g id="Grupo_35" data-name="Grupo 35" transform="translate(1391.481 51.715)">
      <g id="Grupo_34" data-name="Grupo 34" transform="translate(0)">
        <path id="Trazado_43" data-name="Trazado 43" d="M1410.951,58.3a13.093,13.093,0,0,0-4.6-.788.67.67,0,1,0,0,1.341,11.569,11.569,0,0,1,4,.647.661.661,0,0,0,.3.07.671.671,0,0,0,.3-1.27Z" transform="translate(-1405.679 -57.513)"/>
      </g>
    </g>
    <g id="Grupo_37" data-name="Grupo 37" transform="translate(1356.367 37.376)">
      <g id="Grupo_36" data-name="Grupo 36">
        <path id="Trazado_44" data-name="Trazado 44" d="M1400.1,62.049l-2.77-.791a.282.282,0,0,1-.2-.269v-.924a4.99,4.99,0,0,0,.642-.526,4.932,4.932,0,0,0,1.51-3.568V54.7l.268-.535a4.276,4.276,0,0,0,.449-1.9V48.8a.67.67,0,0,0-.671-.67h-6.453a4.26,4.26,0,0,0-4.255,4.255v.04a3.557,3.557,0,0,0,.373,1.582l.343.687v1.1a5.233,5.233,0,0,0,2.151,4.23v.969c0,.149,0,.211-.553.37l-1.351.386-3.909-1.421a.672.672,0,0,0-.183-.513l-1.249-1.312v-2.2c.132-.109.262-.221.388-.339a7.868,7.868,0,0,0,2.479-5.721v-1.76a7.739,7.739,0,0,0,.717-3.259V38.047a.671.671,0,0,0-.671-.671h-10.037a6.414,6.414,0,0,0-6.406,6.407v1.433a7.753,7.753,0,0,0,.717,3.26v1.513a8.193,8.193,0,0,0,2.867,6.253V58.5l-1.249,1.312a.668.668,0,0,0-.182.513l-4.126,1.5a3.531,3.531,0,0,0-.829.434l-.648-.323a5.118,5.118,0,0,0,2.568-2.079.668.668,0,0,0,0-.6,11.923,11.923,0,0,1-.589-4.163c-.016-.474-.031-.921-.058-1.32a5.688,5.688,0,0,0-11.375,0c-.028.4-.043.847-.058,1.32a11.929,11.929,0,0,1-.589,4.163.668.668,0,0,0,0,.6,5.115,5.115,0,0,0,2.571,2.077l-1.8.9a2.807,2.807,0,0,0-1.56,2.524v4.954a.671.671,0,1,0,1.342,0V65.355a1.472,1.472,0,0,1,.818-1.324l2.24-1.121.78.741a2.82,2.82,0,0,0,3.887,0l.779-.741.731.365a3.533,3.533,0,0,0-.539,1.872v5.161a.67.67,0,1,0,1.341,0V65.148a2.2,2.2,0,0,1,1.447-2.064l4.349-1.582,1.811,2.717a1.384,1.384,0,0,0,1.018.611c.046,0,.093.007.138.007a1.382,1.382,0,0,0,.98-.407l1.1-1.105v6.985a.671.671,0,1,0,1.342,0V63.325l1.1,1.105a1.382,1.382,0,0,0,.98.407,1.289,1.289,0,0,0,.138-.007,1.382,1.382,0,0,0,1.018-.611l1.811-2.716,4.35,1.582a2.2,2.2,0,0,1,1.446,2.065v5.16a.67.67,0,1,0,1.341,0v-5.16a3.545,3.545,0,0,0-.992-2.454l.166-.047a3.694,3.694,0,0,0,.624-.225l1.712,1.712v6.174a.671.671,0,1,0,1.342,0V64.135l1.7-1.7a1.58,1.58,0,0,0,.286.113l2.769.792a1.486,1.486,0,0,1,1.074,1.423v5.547a.67.67,0,1,0,1.341,0V64.762A2.833,2.833,0,0,0,1400.1,62.049Zm-39.427-1.184a4.824,4.824,0,0,1-2.152-1.381,7.408,7.408,0,0,0,.382-1.606,5,5,0,0,0,1.769,2.183Zm3.842,1.814a1.479,1.479,0,0,1-2.039,0l-.624-.592a1.386,1.386,0,0,0,.163-.654v-.715a4.99,4.99,0,0,0,2.961,0v.713a1.387,1.387,0,0,0,.163.655Zm-1.02-3.078a3.635,3.635,0,0,1-3.631-3.632.67.67,0,0,0-.671-.67.7.7,0,0,0-.11.009l.006-.172c.015-.461.03-.9.056-1.27a4.973,4.973,0,0,1,1.356-3.126,4.166,4.166,0,0,1,5.989,0,4.977,4.977,0,0,1,1.355,3.126c.027.374.041.809.056,1.27l0,.12a6.026,6.026,0,0,0-3.312-2.42,8.437,8.437,0,0,0-2.551-.4.673.673,0,0,0-.464.205l-1.21,1.255a.671.671,0,0,0,.966.931l1.007-1.044c.867.043,3.656.367,4.741,2.756A3.623,3.623,0,0,1,1363.49,59.6Zm2.821,1.265v-.8a4.962,4.962,0,0,0,1.77-2.186,7.382,7.382,0,0,0,.382,1.6A4.841,4.841,0,0,1,1366.312,60.867Zm6.452-10.878V48.326a.673.673,0,0,0-.066-.291,6.432,6.432,0,0,1-.65-2.818V43.783a5.07,5.07,0,0,1,5.065-5.065h9.367v6.5a6.43,6.43,0,0,1-.65,2.818.667.667,0,0,0-.067.291v1.909a6.437,6.437,0,0,1-2.056,4.743q-.248.232-.515.436l-.011.009a6.449,6.449,0,0,1-4.351,1.3A6.642,6.642,0,0,1,1372.764,49.989Zm3.775,13.492a.046.046,0,0,1-.071-.007l-2.085-3.128.671-.7,3.164,2.162Zm2.724-2.588-3.631-2.482V57.16a7.555,7.555,0,0,0,3.11.9q.265.017.528.017a7.771,7.771,0,0,0,3.625-.889v1.225Zm2.795,2.581a.042.042,0,0,1-.034.021.041.041,0,0,1-.037-.014l-1.678-1.678,3.163-2.163.672.7Zm12.244-.565-1.522-1.522a1.817,1.817,0,0,0,.041-.4v-.283a4.709,4.709,0,0,0,1.328.235l.155,0a4.978,4.978,0,0,0,1.478-.224v.27a1.623,1.623,0,0,0,.048.391Zm2.529-4.332a3.6,3.6,0,0,1-2.64,1.023,3.754,3.754,0,0,1-3.519-3.81V54.536a.664.664,0,0,0-.071-.3l-.414-.828a2.209,2.209,0,0,1-.232-.983v-.04a2.917,2.917,0,0,1,2.914-2.915h5.782v2.785a2.929,2.929,0,0,1-.308,1.3l-.338.676a.676.676,0,0,0-.07.3V55.97A3.6,3.6,0,0,1,1396.831,58.577Z" transform="translate(-1356.367 -37.376)"/>
      </g>
    </g>
    <g id="Grupo_39" data-name="Grupo 39" transform="translate(1397.933 65.337)">
      <g id="Grupo_38" data-name="Grupo 38">
        <path id="Trazado_45" data-name="Trazado 45" d="M1415.411,76.643a.67.67,0,0,0-.67.671v4.3a.67.67,0,1,0,1.341,0v-4.3A.671.671,0,0,0,1415.411,76.643Z" transform="translate(-1414.741 -76.643)"/>
      </g>
    </g>
    <g id="Grupo_41" data-name="Grupo 41" transform="translate(1359.235 66.223)">
      <g id="Grupo_40" data-name="Grupo 40" transform="translate(0 0)">
        <path id="Trazado_46" data-name="Trazado 46" d="M1361.065,77.888a.67.67,0,0,0-.67.671v3.415a.67.67,0,1,0,1.341,0V78.559A.671.671,0,0,0,1361.065,77.888Z" transform="translate(-1360.395 -77.888)"/>
      </g>
    </g>
    <g id="Grupo_43" data-name="Grupo 43" transform="translate(1373.574 43.468)">
      <g id="Grupo_42" data-name="Grupo 42" transform="translate(0 0)">
        <path id="Trazado_47" data-name="Trazado 47" d="M1391.714,47.922c-2.536-2.536-7.842-2.051-10.006-1.725a1.376,1.376,0,0,0-1.176,1.371v1.544a.67.67,0,1,0,1.341,0V47.569a.044.044,0,0,1,.035-.046,21.2,21.2,0,0,1,4.356-.213,6.924,6.924,0,0,1,4.5,1.56.671.671,0,0,0,.948-.948Z" transform="translate(-1380.532 -45.931)"/>
      </g>
    </g>
    <g id="Grupo_45" data-name="Grupo 45" transform="translate(1370.706 66.771)">
      <g id="Grupo_44" data-name="Grupo 44" transform="translate(0 0)">
        <path id="Trazado_48" data-name="Trazado 48" d="M1377.175,78.657a.671.671,0,0,0-.671.671V82.2a.671.671,0,1,0,1.341,0V79.328A.671.671,0,0,0,1377.175,78.657Z" transform="translate(-1376.504 -78.657)"/>
      </g>
    </g>
    <g id="Grupo_47" data-name="Grupo 47" transform="translate(1386.479 66.771)">
      <g id="Grupo_46" data-name="Grupo 46" transform="translate(0 0)">
        <path id="Trazado_49" data-name="Trazado 49" d="M1399.325,78.657a.67.67,0,0,0-.67.671V82.2a.67.67,0,1,0,1.341,0V79.328A.671.671,0,0,0,1399.325,78.657Z" transform="translate(-1398.655 -78.657)"/>
      </g>
    </g>
  </g>
</svg>
