<svg xmlns="http://www.w3.org/2000/svg" width="30.788" height="37.399" viewBox="0 0 30.788 37.399">
  <g id="Grupo_51" data-name="Grupo 51" transform="translate(-1709.559 -37.525)">
    <path id="Trazado_56" data-name="Trazado 56" d="M1725.668,47.533c2.2.146,3.8.7,4.744,1.644a.707.707,0,0,0,1-1c-2.673-2.673-8.264-2.161-10.545-1.817a1.451,1.451,0,0,0-1.24,1.445v1.628a.707.707,0,0,0,1.414,0V47.805a.046.046,0,0,1,.037-.047A22.281,22.281,0,0,1,1725.668,47.533Z" transform="translate(-2.513 -2.135)"/>
    <path id="Trazado_57" data-name="Trazado 57" d="M1716.307,78.806a.706.706,0,0,0-.707.706v3.023a.707.707,0,0,0,1.413,0V79.512A.706.706,0,0,0,1716.307,78.806Z" transform="translate(-1.508 -10.304)"/>
    <path id="Trazado_58" data-name="Trazado 58" d="M1729.859,61.707a.709.709,0,0,0-.193-.542l-1.316-1.382V57.462c.139-.115.276-.233.409-.357a8.293,8.293,0,0,0,2.613-6.029V49.221a8.17,8.17,0,0,0,.756-3.435V38.231a.706.706,0,0,0-.707-.706h-10.578a6.759,6.759,0,0,0-6.751,6.751v1.511a8.167,8.167,0,0,0,.756,3.435v1.6a8.635,8.635,0,0,0,3.022,6.59v2.377l-1.316,1.382a.709.709,0,0,0-.193.542l-4.347,1.58a3.724,3.724,0,0,0-.873.458l-1.013,1.074a3.721,3.721,0,0,0-.568,1.973v5.439a.706.706,0,0,0,1.413,0V66.792a2.323,2.323,0,0,1,1.524-2.176l4.584-1.667,1.908,2.863a1.459,1.459,0,0,0,1.072.644c.049,0,.1.007.146.007a1.456,1.456,0,0,0,1.032-.428l1.164-1.165v7.361a.707.707,0,0,0,1.414,0V64.87l1.164,1.165a1.456,1.456,0,0,0,1.032.428c.048,0,.1,0,.146-.007a1.459,1.459,0,0,0,1.072-.644l1.908-2.863Zm-13.6-10.891V49.064a.705.705,0,0,0-.071-.308,6.777,6.777,0,0,1-.685-2.969V44.276a5.344,5.344,0,0,1,5.338-5.338h9.871v6.849a6.778,6.778,0,0,1-.686,2.969.715.715,0,0,0-.07.308v2.012a6.781,6.781,0,0,1-2.166,5,6.95,6.95,0,0,1-.542.459l-.012.009a6.8,6.8,0,0,1-4.585,1.368A7,7,0,0,1,1716.261,50.817Zm3.979,14.219a.044.044,0,0,1-.039.014.044.044,0,0,1-.036-.022l-2.2-3.3.708-.744,3.333,2.279Zm2.87-2.727-3.826-2.616V58.373a7.936,7.936,0,0,0,3.278.946q.279.018.556.018a8.182,8.182,0,0,0,3.819-.936v1.291Zm2.945,2.719a.044.044,0,0,1-.036.022.043.043,0,0,1-.039-.014l-1.769-1.768,3.334-2.28.708.744Z"/>
    <path id="Trazado_59" data-name="Trazado 59" d="M1739.893,70.248a6.422,6.422,0,1,0,6.422,6.422A6.429,6.429,0,0,0,1739.893,70.248Zm0,11.343a4.921,4.921,0,1,1,4.921-4.921A4.927,4.927,0,0,1,1739.893,81.591Z" transform="translate(-5.969 -8.168)"/>
    <path id="Trazado_60" data-name="Trazado 60" d="M1743.751,76.791h-2.2v-2.2a.75.75,0,1,0-1.5,0v2.2h-2.2a.75.75,0,1,0,0,1.5h2.2v2.2a.75.75,0,1,0,1.5,0v-2.2h2.2a.75.75,0,1,0,0-1.5Z" transform="translate(-6.873 -9.064)"/>
  </g>
</svg>
