<svg xmlns="http://www.w3.org/2000/svg" width="37.685" height="30.404" viewBox="0 0 37.685 30.404">
  <g id="Grupo_75" data-name="Grupo 75" transform="translate(-476.925 -675.898)">
    <path id="Trazado_61" data-name="Trazado 61" d="M514.518,683.149A8.5,8.5,0,0,0,499.23,679.4a8.59,8.59,0,0,0-1.641,5.012H477.763c-.648,0-.836.188-.836.835q0,8.644,0,17.288a3.641,3.641,0,0,0,3.761,3.766q13.258.005,26.517,0a4.248,4.248,0,0,0,1.051-.128,3.618,3.618,0,0,0,2.715-3.593q.009-5.414,0-10.829a.638.638,0,0,1,.271-.569A8.294,8.294,0,0,0,514.518,683.149Zm-18.167,3.105v9.683h-15.76v-9.683Zm-18.178-.6h1.194c-.006.061-.008.127-.008.2q0,5.245,0,10.489c0,.647.189.836.835.836h16.567c.646,0,.836-.19.837-.836q0-5.244,0-10.489c0-.073,0-.139-.008-.2h.1a8.532,8.532,0,0,0,12.054,6.461V700.2H478.173Zm31.5,17.545a2.363,2.363,0,0,1-2.239,1.882c-.126.006-.253,0-.38,0H480.848a2.456,2.456,0,0,1-2.706-2.706v-.924h31.643A13.915,13.915,0,0,1,509.675,703.2Zm-3.505-11.492a7.3,7.3,0,1,1,7.234-7.282A7.307,7.307,0,0,1,506.17,691.707Z" transform="translate(0)"/>
    <rect id="Rect치ngulo_22" data-name="Rect치ngulo 22" width="4.207" height="1.176" rx="0.588" transform="translate(498.841 695.451)"/>
    <rect id="Rect치ngulo_23" data-name="Rect치ngulo 23" width="4.207" height="1.176" rx="0.588" transform="translate(504.313 695.451)"/>
    <path id="Trazado_62" data-name="Trazado 62" d="M485.212,696.479c.169.044.351.038.524.073a.579.579,0,0,1,.506.539.6.6,0,0,1-1.094.394,1.815,1.815,0,0,1-.146-.319h-1.048a.121.121,0,0,0-.12.128,1.555,1.555,0,0,0,.744,1.3.8.8,0,0,1,.468.9c0,.019.021.042.036.067h1.188a.819.819,0,0,1,.465-.982,1.617,1.617,0,0,0,.695-1.763,1.73,1.73,0,0,0-1.32-1.417c-.181-.05-.376-.042-.561-.08a.58.58,0,0,1-.507-.579.6.6,0,0,1,1.135-.293,2.3,2.3,0,0,1,.111.258h1.047a.121.121,0,0,0,.12-.131,1.6,1.6,0,0,0-.773-1.318.733.733,0,0,1-.434-.834.307.307,0,0,0-.029-.107h-1.2a.819.819,0,0,1-.465.98,1.616,1.616,0,0,0-.7,1.762A1.73,1.73,0,0,0,485.212,696.479Z" transform="translate(-2.029 -4.833)"/>
    <path id="Trazado_63" data-name="Trazado 63" d="M492.694,697.727A.563.563,0,0,1,492,697.4c-.04-.076-.066-.16-.1-.244h-1.053a.12.12,0,0,0-.119.131,1.573,1.573,0,0,0,.73,1.287.837.837,0,0,1,.488.926c0,.017.027.038.043.058h1.145a.9.9,0,0,0,.013-.2.586.586,0,0,1,.3-.662,1.8,1.8,0,0,0-.791-3.376c-.459-.037-.695-.224-.72-.571a.618.618,0,0,1,.488-.636c.315-.066.565.112.724.514a.511.511,0,0,0,.035.06h1.049a.121.121,0,0,0,.12-.13,1.554,1.554,0,0,0-.725-1.278.835.835,0,0,1-.489-.924c0-.017-.027-.038-.043-.06h-1.139a.7.7,0,0,0-.02.157.666.666,0,0,1-.322.718,1.918,1.918,0,0,0-.825,2.027,1.717,1.717,0,0,0,1.3,1.27c.169.046.35.042.523.073a.583.583,0,0,1,.528.56A.563.563,0,0,1,492.694,697.727Z" transform="translate(-4.064 -4.829)"/>
    <path id="Trazado_64" data-name="Trazado 64" d="M499,696.479c.17.044.352.037.524.073a.579.579,0,0,1,.509.576.6.6,0,0,1-1.134.294,2.2,2.2,0,0,1-.11-.255h-1.048a.121.121,0,0,0-.12.13,1.565,1.565,0,0,0,.745,1.3.8.8,0,0,1,.468.9c0,.018.021.041.036.068h1.188a.82.82,0,0,1,.465-.982,1.618,1.618,0,0,0,.7-1.762,1.73,1.73,0,0,0-1.319-1.418c-.181-.05-.376-.042-.561-.08a.579.579,0,0,1-.507-.577.6.6,0,0,1,1.134-.295,2.4,2.4,0,0,1,.112.258h1.047a.122.122,0,0,0,.12-.13,1.6,1.6,0,0,0-.772-1.318.734.734,0,0,1-.435-.834.307.307,0,0,0-.028-.109h-1.061a.119.119,0,0,0-.112.142c.057.408-.181.624-.521.86a1.625,1.625,0,0,0-.659,1.777A1.731,1.731,0,0,0,499,696.479Z" transform="translate(-6.089 -4.832)"/>
    <path id="Trazado_65" data-name="Trazado 65" d="M520.959,684.839h-3.668v-3.668a.586.586,0,0,0-.586-.586h0a.585.585,0,0,0-.586.586v3.668h-3.669a.586.586,0,0,0,0,1.172h3.669v3.668a.586.586,0,0,0,.586.586h0a.586.586,0,0,0,.586-.586v-3.668h3.668a.586.586,0,0,0,0-1.172Z" transform="translate(-10.288 -1.38)"/>
  </g>
</svg>
