<svg xmlns="http://www.w3.org/2000/svg" width="25.352" height="33.127" viewBox="0 0 25.352 33.127">
  <g id="Grupo_33" data-name="Grupo 33" transform="translate(-1653.367 -34.848)">
    <g id="Grupo_27" data-name="Grupo 27" transform="translate(1660.435 40.853)">
      <g id="Grupo_26" data-name="Grupo 26">
        <path id="Trazado_31" data-name="Trazado 31" d="M1674.459,45.366c-2.5-2.5-7.731-2.022-9.864-1.7a1.356,1.356,0,0,0-1.159,1.352V46.54a.661.661,0,1,0,1.322,0V45.018a.044.044,0,0,1,.034-.045,20.9,20.9,0,0,1,4.295-.21,6.826,6.826,0,0,1,4.437,1.538.661.661,0,0,0,.935-.934Z" transform="translate(-1663.436 -43.403)"/>
      </g>
    </g>
    <g id="Grupo_29" data-name="Grupo 29" transform="translate(1657.608 63.826)">
      <g id="Grupo_28" data-name="Grupo 28">
        <path id="Trazado_32" data-name="Trazado 32" d="M1660.069,76.129a.661.661,0,0,0-.661.661v2.827a.661.661,0,0,0,1.323,0V76.79A.662.662,0,0,0,1660.069,76.129Z" transform="translate(-1659.408 -76.129)"/>
      </g>
    </g>
    <g id="Grupo_31" data-name="Grupo 31" transform="translate(1673.157 63.826)">
      <g id="Grupo_30" data-name="Grupo 30">
        <path id="Trazado_33" data-name="Trazado 33" d="M1682.22,76.129a.661.661,0,0,0-.661.661v2.827a.661.661,0,1,0,1.322,0V76.79A.661.661,0,0,0,1682.22,76.129Z" transform="translate(-1681.559 -76.129)"/>
      </g>
    </g>
    <g id="Grupo_32" data-name="Grupo 32" transform="translate(1658.93 36.17)">
      <path id="Trazado_34" data-name="Trazado 34" d="M1667.978,54.479a6.358,6.358,0,0,0,4.289-1.28l.011-.008a6.444,6.444,0,0,0,.508-.43,6.345,6.345,0,0,0,2.026-4.675V46.2a.657.657,0,0,1,.066-.287,6.341,6.341,0,0,0,.641-2.778V36.732h-9.234a5,5,0,0,0-4.993,4.993v1.414a6.341,6.341,0,0,0,.641,2.778.666.666,0,0,1,.065.287v1.64A6.547,6.547,0,0,0,1667.978,54.479Z" transform="translate(-1661.292 -36.732)" fill="none"/>
      <path id="Trazado_35" data-name="Trazado 35" d="M1664.572,66.811l2.055,3.084a.041.041,0,0,0,.034.02.04.04,0,0,0,.036-.013l1.655-1.654-3.119-2.132Z" transform="translate(-1662.27 -45.49)" fill="none"/>
      <path id="Trazado_36" data-name="Trazado 36" d="M1673.485,62.658a7.661,7.661,0,0,1-3.573.876q-.259,0-.52-.017a7.448,7.448,0,0,1-3.066-.885v1.234l3.579,2.446,3.58-2.446Z" transform="translate(-1662.792 -44.451)" fill="none"/>
      <path id="Trazado_37" data-name="Trazado 37" d="M1672.894,68.248l1.654,1.654a.04.04,0,0,0,.036.013.043.043,0,0,0,.034-.02l2.056-3.084-.662-.695Z" transform="translate(-1664.75 -45.49)" fill="none"/>
    </g>
    <path id="Trazado_38" data-name="Trazado 38" d="M1664.572,66.811l2.055,3.084a.041.041,0,0,0,.034.02.04.04,0,0,0,.036-.013l1.655-1.654-3.119-2.132Z" transform="translate(-3.34 -9.319)" fill="none"/>
    <path id="Trazado_39" data-name="Trazado 39" d="M1673.485,62.658a7.661,7.661,0,0,1-3.573.876q-.259,0-.52-.017a7.448,7.448,0,0,1-3.066-.885v1.234l3.579,2.446,3.58-2.446Z" transform="translate(-3.862 -8.281)" fill="none"/>
    <path id="Trazado_40" data-name="Trazado 40" d="M1667.978,54.479a6.358,6.358,0,0,0,4.289-1.28l.011-.008a6.444,6.444,0,0,0,.508-.43,6.345,6.345,0,0,0,2.026-4.675V46.2a.657.657,0,0,1,.066-.287,6.341,6.341,0,0,0,.641-2.778V36.732h-9.234a5,5,0,0,0-4.993,4.993v1.414a6.341,6.341,0,0,0,.641,2.778.666.666,0,0,1,.065.287v1.64A6.547,6.547,0,0,0,1667.978,54.479Z" transform="translate(-2.362 -0.562)" fill="none"/>
    <path id="Trazado_41" data-name="Trazado 41" d="M1672.894,68.248l1.654,1.654a.04.04,0,0,0,.036.013.043.043,0,0,0,.034-.02l2.056-3.084-.662-.695Z" transform="translate(-5.82 -9.319)" fill="none"/>
    <path id="Trazado_42" data-name="Trazado 42" d="M1677.741,59.808l-1.532-.938-3.853-1.4a.662.662,0,0,0-.18-.506l-1.231-1.294V53.5c.13-.107.258-.218.383-.334a7.758,7.758,0,0,0,2.444-5.64V45.79a7.635,7.635,0,0,0,.707-3.214V35.509a.661.661,0,0,0-.66-.661h-9.9a6.323,6.323,0,0,0-6.315,6.316v1.414a7.642,7.642,0,0,0,.707,3.213v1.492a8.078,8.078,0,0,0,2.827,6.165V55.67l-1.231,1.294a.66.66,0,0,0-.18.506l-4.067,1.479a3.46,3.46,0,0,0-.817.428l-.948,1a3.48,3.48,0,0,0-.531,1.845v5.087a.661.661,0,1,0,1.322,0V62.227a2.173,2.173,0,0,1,1.427-2.036l4.288-1.559,1.785,2.677a1.36,1.36,0,0,0,1,.6,1.276,1.276,0,0,0,.136.007,1.362,1.362,0,0,0,.966-.4l1.089-1.089v6.886a.661.661,0,0,0,1.323,0V60.429l1.089,1.089a1.363,1.363,0,0,0,.966.4,1.276,1.276,0,0,0,.136-.007,1.36,1.36,0,0,0,1-.6l1.785-2.677,4.288,1.559a2.174,2.174,0,0,1,1.426,2.036v5.088a.661.661,0,0,0,1.322,0V62.227A3.493,3.493,0,0,0,1677.741,59.808Zm-18.1-12.526v-1.64a.67.67,0,0,0-.065-.287,6.337,6.337,0,0,1-.641-2.778V41.164a5,5,0,0,1,4.993-4.993h9.234v6.407a6.341,6.341,0,0,1-.641,2.778.66.66,0,0,0-.066.287v1.883a6.427,6.427,0,0,1-2.534,5.1l-.011.008a6.357,6.357,0,0,1-4.289,1.28A6.547,6.547,0,0,1,1659.636,47.283Zm3.722,13.3a.04.04,0,0,1-.037.013.041.041,0,0,1-.034-.02l-2.055-3.084.661-.695,3.119,2.132Zm2.685-2.551-3.579-2.446V54.351a7.447,7.447,0,0,0,3.066.885q.261.017.52.017a7.66,7.66,0,0,0,3.573-.876v1.208Zm2.755,2.545a.043.043,0,0,1-.034.02.04.04,0,0,1-.037-.013l-1.654-1.654,3.118-2.132.662.695Z"/>
  </g>
</svg>
