<svg id="Grupo_74" data-name="Grupo 74" xmlns="http://www.w3.org/2000/svg" width="27.917" height="28.399" viewBox="0 0 27.917 28.399">
  <path id="Trazado_5" data-name="Trazado 5" d="M1058.607,15.479a5.547,5.547,0,1,0,5.547,5.547A5.553,5.553,0,0,0,1058.607,15.479Zm0,9.223a3.676,3.676,0,1,1,3.676-3.676A3.68,3.68,0,0,1,1058.607,24.7Z" transform="translate(-1036.237 1.827)" fill="#006faf"/>
  <path id="Trazado_6" data-name="Trazado 6" d="M1046.135,17.991h-12.026a1.638,1.638,0,0,1-1.3-.641,1.655,1.655,0,0,1-.294-1.437,11.925,11.925,0,0,1,17.958-7.038.935.935,0,1,0,1.007-1.576,13.754,13.754,0,0,0-3.645-1.641,7.185,7.185,0,0,0,3.415-6.108,7.2,7.2,0,0,0-7.191-7.191,7.2,7.2,0,0,0-7.191,7.191,7.185,7.185,0,0,0,3.422,6.112,13.785,13.785,0,0,0-9.586,9.781,3.528,3.528,0,0,0,3.409,4.42h12.026a.936.936,0,0,0,0-1.871Zm-7.4-18.442a5.326,5.326,0,0,1,5.32-5.32,5.326,5.326,0,0,1,5.32,5.32,5.326,5.326,0,0,1-5.32,5.32A5.327,5.327,0,0,1,1038.734-.451Z" transform="translate(-1030.583 7.642)" fill="#006faf"/>
  <path id="Trazado_7" data-name="Trazado 7" d="M1060.306,20.614l-1.465,1.465-.137-.136a.935.935,0,0,0-1.323,1.323l1.46,1.46,2.788-2.788a.936.936,0,1,0-1.323-1.323Z" transform="translate(-1037.255 0.604)" fill="#006faf"/>
</svg>
